<?xml version="1.0" standalone="no"?>
<!DOCTYPE svg PUBLIC "-//W3C//DTD SVG 20010904//EN"
 "http://www.w3.org/TR/2001/REC-SVG-20010904/DTD/svg10.dtd">
<svg version="1.0" xmlns="http://www.w3.org/2000/svg"
 width="475.000000pt" height="475.000000pt" viewBox="0 0 475.000000 475.000000"
 preserveAspectRatio="xMidYMid meet">

<g transform="translate(0.000000,475.000000) scale(0.100000,-0.100000)"
fill="#000000" stroke="none">
<path d="M86 4728 c-3 -13 -15 -299 -27 -637 l-23 -613 22 -18 c12 -10 27 -20
34 -22 7 -3 4 -15 -11 -35 -12 -16 -25 -48 -28 -70 -9 -66 42 -142 95 -143 12
0 40 -11 61 -25 37 -25 44 -26 145 -21 59 2 113 10 121 16 19 16 28 -5 54
-125 34 -163 53 -284 60 -388 7 -91 10 -100 37 -126 16 -16 94 -64 174 -106
165 -88 328 -183 336 -197 3 -5 0 -15 -6 -23 -18 -22 4 -18 23 3 20 22 21 32
5 32 -6 0 -25 10 -42 23 -34 26 -298 177 -309 177 -3 0 -44 22 -90 50 -98 57
-101 63 -116 205 -12 114 -43 317 -65 419 -12 61 -12 72 0 92 8 12 30 59 49
105 33 79 53 106 66 91 12 -13 58 -168 109 -366 70 -272 65 -263 175 -304 49
-18 128 -40 175 -49 47 -8 88 -18 93 -22 4 -4 0 -28 -9 -54 -9 -26 -14 -52
-12 -59 3 -7 16 21 30 62 14 41 37 102 52 135 14 33 20 51 11 41 -8 -11 -15
-25 -15 -32 0 -7 -12 -26 -26 -43 -21 -25 -31 -30 -52 -25 -15 3 -49 10 -77
16 -100 21 -232 69 -254 92 -12 13 -29 55 -40 102 -10 43 -35 147 -55 231 -20
84 -46 180 -57 214 -11 33 -18 63 -15 66 6 6 548 -17 555 -24 3 -2 6 -50 8
-106 4 -133 20 -254 48 -349 20 -70 21 -79 7 -100 -10 -15 -10 -19 -2 -10 20
17 30 15 30 -8 0 -11 5 -20 10 -20 13 0 14 -4 -15 85 -14 43 -32 119 -40 169
-18 105 -34 346 -24 352 10 6 59 -62 59 -80 0 -36 18 -12 24 32 16 117 22 124
52 62 15 -31 42 -57 119 -110 55 -38 126 -92 158 -121 61 -54 91 -61 42 -9
-16 16 -27 32 -24 34 33 30 197 85 267 90 54 4 59 7 94 51 29 37 39 44 44 31
3 -9 3 -27 0 -41 -4 -14 -3 -25 1 -24 5 0 40 38 78 84 39 46 75 84 81 84 10 1
-2 -83 -21 -146 -5 -15 -3 -23 4 -23 6 0 11 7 11 15 0 8 15 22 33 31 17 9 34
20 37 24 3 4 30 18 60 33 30 14 93 47 140 72 50 27 86 41 88 35 2 -6 -26 -72
-62 -145 -36 -74 -66 -138 -66 -142 0 -3 10 3 23 15 23 21 106 56 115 48 2 -3
-5 -20 -17 -39 -24 -39 -22 -42 47 -72 23 -10 42 -23 42 -30 0 -7 -32 -40 -70
-75 -39 -34 -69 -65 -66 -67 3 -3 51 35 108 84 57 49 128 107 158 127 96 66
67 56 -48 -17 l-63 -40 -52 28 c-29 16 -53 29 -55 31 -2 1 7 21 20 44 l23 42
80 -6 c44 -3 105 -6 135 -6 39 0 51 -3 40 -10 -20 -13 0 -13 39 1 38 13 50 6
29 -18 -9 -10 -19 -29 -23 -42 -6 -21 -5 -23 11 -16 11 4 46 16 79 27 33 12
66 25 73 31 29 23 21 -5 -16 -60 -37 -55 -41 -67 -61 -203 -12 -80 -26 -165
-31 -190 -16 -70 -29 -193 -23 -204 10 -16 22 25 22 80 1 28 4 54 8 57 23 23
133 -217 133 -290 0 -23 -2 -25 -35 -19 -41 8 -48 -9 -8 -18 38 -10 328 -7
402 3 103 16 83 22 -40 14 -62 -4 -154 -8 -203 -8 l-88 0 -18 71 c-19 73 -59
165 -106 245 l-28 47 23 173 23 172 46 72 46 71 66 -3 c36 -2 128 -8 205 -13
77 -5 220 -13 318 -16 98 -4 180 -11 183 -15 9 -16 -36 -151 -96 -285 -67
-150 -223 -467 -242 -493 -7 -9 0 -5 14 9 57 54 264 493 329 698 l23 74 156
-7 c85 -4 160 -12 166 -16 7 -5 26 -47 44 -92 41 -103 86 -193 116 -233 27
-35 30 -68 9 -104 l-14 -25 -1 31 c0 17 -6 37 -14 43 -18 15 -86 126 -86 140
0 6 -5 11 -11 11 -15 0 -4 -32 43 -128 41 -84 43 -107 15 -147 -12 -15 -30
-20 -86 -23 -39 -2 -71 0 -71 5 0 5 8 19 17 33 26 37 19 104 -22 205 -35 85
-55 122 -55 100 0 -6 16 -59 36 -119 32 -96 35 -112 25 -146 -19 -63 -46 -90
-92 -90 -96 0 -160 34 -159 85 1 15 4 13 14 -11 11 -24 24 -34 60 -44 75 -21
116 -18 133 8 15 22 15 22 -28 22 -49 0 -149 42 -149 62 0 9 -3 9 -10 -2 -7
-10 -10 25 -9 110 1 69 -4 136 -9 150 -8 19 -11 -3 -12 -100 0 -69 -5 -145
-11 -169 -7 -32 -7 -53 1 -72 9 -21 8 -35 -5 -65 -40 -96 -85 -316 -90 -439
-2 -48 -14 -71 -48 -98 -42 -32 -54 -35 -177 -42 -203 -12 -580 -94 -580 -127
0 -6 7 -7 18 -3 9 4 23 9 30 12 10 4 10 0 0 -22 -11 -24 -10 -29 7 -41 10 -8
24 -14 29 -14 6 0 3 5 -6 11 -24 13 -23 22 7 57 19 23 43 35 102 50 99 27 264
51 420 62 67 4 130 13 141 19 47 25 62 64 78 208 11 92 28 176 51 253 20 63
38 122 40 132 4 15 9 15 61 -3 41 -14 70 -18 102 -14 25 3 72 6 105 5 33 0 79
6 102 14 40 14 103 72 130 120 22 37 16 88 -15 126 -45 55 -68 98 -106 199
-20 51 -36 96 -36 100 0 3 35 5 78 3 71 -4 81 -2 107 20 l27 24 14 260 c16
318 45 926 46 976 1 42 -18 71 -60 86 -15 6 -148 15 -297 22 -148 6 -378 18
-510 25 -132 8 -436 24 -675 35 -239 11 -457 22 -485 25 -47 5 -253 16 -580
30 -77 4 -212 11 -300 17 -88 6 -480 13 -872 15 l-712 4 -5 -23z m255 -118
c19 0 29 -5 29 -15 0 -12 -11 -15 -45 -13 -25 1 -48 5 -51 10 -9 13 7 30 23
24 8 -3 28 -6 44 -6z m319 -14 c0 -2 3 -11 6 -20 4 -12 0 -16 -16 -16 -17 0
-21 4 -16 18 5 14 3 14 -9 -2 -11 -15 -18 -17 -26 -9 -17 17 -1 33 32 33 16 0
29 -2 29 -4z m190 -26 c0 -11 -7 -20 -15 -20 -8 0 -15 5 -15 12 0 9 -3 9 -12
0 -18 -18 -28 -15 -28 8 0 16 7 20 35 20 28 0 35 -4 35 -20z m180 -11 c0 -17
-4 -20 -22 -15 -13 3 -29 6 -35 6 -7 0 -13 7 -13 15 0 10 11 15 35 15 29 0 35
-4 35 -21z m184 -5 c6 -17 -10 -28 -26 -17 -7 4 -21 6 -30 5 -11 -2 -18 3 -18
12 0 19 67 19 74 0z m282 -6 c3 -5 3 -16 0 -25 -5 -12 -9 -13 -20 -4 -7 6 -21
9 -30 5 -15 -6 -23 15 -11 28 9 9 55 6 61 -4z m189 -16 c7 -19 -15 -34 -31
-21 -6 5 -19 7 -28 3 -16 -6 -23 15 -10 29 12 12 63 4 69 -11z m178 2 c9 -10
-4 -34 -19 -34 -8 0 -14 6 -14 13 0 8 -3 7 -10 -3 -7 -11 -12 -12 -21 -3 -6 6
-8 16 -5 22 8 12 58 15 69 5z m185 -27 c3 -15 -2 -17 -32 -14 -20 2 -36 7 -36
10 0 4 0 12 0 18 0 19 64 6 68 -14z m280 -1 c10 -6 10 -11 1 -22 -8 -10 -15
-11 -24 -4 -7 6 -20 8 -29 4 -16 -6 -23 15 -10 29 7 7 46 3 62 -7z m168 -9 c4
-4 13 -2 19 3 15 12 40 -13 30 -30 -8 -13 -62 -13 -70 0 -4 6 -11 8 -16 5 -16
-10 -31 5 -20 19 11 13 46 15 57 3z m224 -28 c0 -14 -7 -19 -30 -19 -16 0 -30
5 -30 11 0 6 -9 8 -20 4 -14 -4 -20 -2 -20 8 0 21 5 23 54 19 37 -3 46 -8 46
-23z m460 5 c0 -8 -9 -14 -20 -14 -11 0 -20 -7 -20 -15 0 -8 9 -15 20 -15 14
0 20 -7 20 -23 0 -21 -3 -22 -52 -17 l-53 5 4 45 c1 25 4 47 6 50 2 3 24 4 49
2 31 -3 46 -9 46 -18z m-321 -3 c6 -10 10 -9 15 4 8 21 26 10 26 -15 0 -15 -6
-19 -27 -18 -16 1 -32 4 -38 7 -5 3 -14 6 -20 6 -10 0 -15 8 -15 25 0 15 50 7
59 -9z m516 -11 c3 -6 -1 -13 -9 -16 -9 -3 -16 -12 -16 -20 0 -10 -12 -14 -38
-14 -46 0 -51 3 -44 35 4 23 9 25 53 25 26 0 51 -5 54 -10z m193 -5 c2 -2 0
-20 -4 -40 l-7 -37 -51 7 c-59 7 -58 7 -50 28 4 11 21 17 52 20 l47 3 -52 2
c-49 2 -63 9 -47 24 5 6 105 -1 112 -7z m-3258 -135 c0 -5 -9 -10 -20 -10 -11
0 -20 5 -20 10 0 6 9 10 20 10 11 0 20 -4 20 -10z m160 -15 c0 -8 -4 -15 -10
-15 -5 0 -10 7 -10 15 0 8 5 15 10 15 6 0 10 -7 10 -15z m197 -1 c8 -21 -13
-42 -28 -27 -13 13 -5 43 11 43 6 0 13 -7 17 -16z m188 -15 c0 -8 -10 -15 -22
-17 -25 -4 -30 7 -11 26 15 15 33 10 33 -9z m173 -17 c2 -14 -2 -22 -12 -22
-19 0 -29 17 -22 36 8 22 30 12 34 -14z m187 5 c21 -16 12 -39 -13 -30 -20 8
-33 24 -26 35 7 11 18 10 39 -5z m-745 -28 c0 -11 -4 -17 -10 -14 -5 3 -10 13
-10 21 0 8 5 14 10 14 6 0 10 -9 10 -21z m925 11 c3 -5 -3 -10 -15 -10 -12 0
-18 5 -15 10 3 6 10 10 15 10 5 0 12 -4 15 -10z m-737 -17 c-5 -25 -28 -28
-28 -4 0 12 6 21 16 21 9 0 14 -7 12 -17z m925 2 c4 -8 2 -17 -4 -21 -15 -9
-39 3 -39 21 0 19 36 20 43 0z m-735 -12 c-2 -10 -10 -18 -18 -18 -8 0 -16 8
-18 18 -2 12 3 17 18 17 15 0 20 -5 18 -17z m902 1 c0 -17 -22 -14 -28 4 -2 7
3 12 12 12 9 0 16 -7 16 -16z m170 -9 c0 -14 -4 -25 -10 -25 -5 0 -10 11 -10
25 0 14 5 25 10 25 6 0 10 -11 10 -25z m-894 4 c3 -6 2 -15 -2 -19 -12 -12
-38 5 -30 19 9 14 23 14 32 0z m1090 0 c3 -6 -1 -18 -10 -27 -15 -15 -16 -14
-16 11 0 27 13 36 26 16z m-906 -14 c0 -8 -6 -15 -14 -15 -17 0 -28 14 -19 24
12 12 33 6 33 -9z m180 -8 c0 -8 -3 -17 -7 -20 -9 -9 -34 13 -27 24 8 14 34
11 34 -4z m1082 -19 c-15 -15 -26 -4 -18 18 5 13 9 15 18 6 9 -9 9 -15 0 -24z
m-904 10 c-6 -18 -28 -21 -28 -4 0 9 7 16 16 16 9 0 14 -5 12 -12z m735 1 c-8
-8 -16 -8 -30 0 -16 9 -14 10 12 11 21 0 26 -3 18 -11z m406 -5 c2 -2 -11 -4
-29 -4 -51 0 -24 -18 35 -24 28 -2 80 -5 118 -5 50 -1 67 -4 67 -15 0 -12 -22
-13 -127 -9 -71 3 -130 7 -133 10 -3 2 -5 18 -6 34 -2 29 -1 29 35 23 20 -4
38 -8 40 -10z m-959 -15 c0 -24 -23 -21 -28 4 -2 10 3 17 12 17 10 0 16 -9 16
-21z m183 4 c8 -7 -11 -33 -24 -33 -5 0 -9 9 -9 20 0 19 20 27 33 13z m-1579
-24 c13 -12 -15 -21 -50 -16 -17 2 -30 11 -32 20 -3 13 3 15 35 10 21 -3 42
-9 47 -14z m1762 10 c7 -12 -15 -31 -28 -23 -4 3 -8 12 -8 20 0 17 26 19 36 3z
m-1532 -43 c-4 -9 -14 -16 -23 -14 -20 4 -27 38 -9 49 18 11 40 -13 32 -35z
m1706 24 c0 -5 -4 -10 -10 -10 -5 0 -10 5 -10 10 0 6 5 10 10 10 6 0 10 -4 10
-10z m188 -8 c2 -7 -6 -12 -17 -12 -21 0 -27 11 -14 24 9 9 26 2 31 -12z
m-1700 -14 c-4 -32 -52 -32 -56 0 -3 19 1 22 28 22 27 0 31 -3 28 -22z m2400
10 c-6 -17 -98 -15 -98 2 0 6 23 10 51 10 35 0 49 -4 47 -12z m357 3 c3 -5 1
-12 -5 -16 -13 -8 -80 5 -80 16 0 12 77 12 85 0z m-2605 -27 c0 -20 -4 -25
-16 -20 -9 3 -18 6 -20 6 -2 0 -4 9 -4 20 0 13 7 20 20 20 15 0 20 -7 20 -26z
m188 -2 c3 -16 -2 -22 -17 -22 -24 0 -33 13 -25 35 9 23 38 14 42 -13z m2232
12 c0 -11 -5 -14 -16 -10 -9 3 -27 6 -40 6 -13 0 -24 5 -24 10 0 6 18 10 40
10 30 0 40 -4 40 -16z m-3009 -4 c10 -6 19 -20 19 -32 0 -16 -4 -19 -22 -14
-13 4 -35 9 -50 12 -41 9 -38 44 3 44 17 0 39 -5 50 -10z m959 -2 c0 -16 -17
-44 -23 -38 -3 3 -8 15 -11 28 -6 18 -3 22 13 22 12 0 21 -6 21 -12z m2490 2
c0 -5 -16 -10 -35 -10 -19 0 -35 5 -35 10 0 6 16 10 35 10 19 0 35 -4 35 -10z
m-2306 -9 c6 -9 -20 -49 -27 -41 -2 3 -8 15 -11 28 -6 18 -3 22 13 22 11 0 22
-4 25 -9z m2006 -12 c0 -5 -9 -9 -20 -9 -22 0 -27 16 -7 23 15 5 27 -1 27 -14z
m470 13 c0 -15 -28 -47 -35 -40 -8 8 13 48 25 48 6 0 10 -4 10 -8z m-2295 -28
c0 -28 -39 -25 -43 4 -3 18 1 21 20 19 15 -3 23 -11 23 -23z m165 -9 c0 -14
-4 -25 -10 -25 -5 0 -10 11 -10 25 0 14 5 25 10 25 6 0 10 -11 10 -25z m1960
10 c0 -15 -26 -20 -54 -9 -26 10 -18 20 19 22 26 2 35 -1 35 -13z m350 -1 c0
-17 -22 -14 -28 4 -2 7 3 12 12 12 9 0 16 -7 16 -16z m-2113 -5 c16 -16 5 -39
-17 -39 -23 0 -34 16 -26 35 6 18 28 19 43 4z m2303 -10 c0 -5 -7 -9 -15 -9
-15 0 -20 12 -9 23 8 8 24 -1 24 -14z m-2125 0 c7 -10 -21 -38 -37 -39 -5 0
-8 11 -8 25 0 18 5 25 19 25 11 0 23 -5 26 -11z m161 -37 c-4 -3 -11 -1 -18 6
-8 8 -8 15 3 28 13 16 14 16 17 -5 2 -13 1 -25 -2 -29z m185 21 c5 -46 2 -77
-9 -81 -9 -3 -12 9 -10 42 0 25 5 46 10 46 4 0 8 -3 9 -7z m179 -27 c0 -8 -4
-18 -10 -21 -5 -3 -10 3 -10 14 0 12 5 21 10 21 6 0 10 -6 10 -14z m-362 -28
c-2 -13 -7 -23 -13 -23 -5 0 -11 10 -13 23 -2 15 2 22 13 22 11 0 15 -7 13
-22z m-1768 -7 c14 -28 13 -31 -15 -31 -26 0 -29 7 -19 34 8 21 21 20 34 -3z
m-231 -4 c56 -2 86 -7 89 -15 3 -9 -21 -11 -99 -7 -56 3 -104 7 -107 9 -8 9 9
25 21 20 7 -2 50 -6 96 -7z m409 -15 c3 -17 -2 -22 -17 -22 -14 0 -21 6 -21
18 0 38 33 41 38 4z m2400 11 c3 -9 -12 -13 -52 -13 -51 0 -74 9 -60 23 12 11
107 2 112 -10z m560 0 c-4 -22 -22 -20 -26 1 -2 10 3 16 13 16 10 0 15 -7 13
-17z m-2773 -18 c0 -13 -8 -21 -22 -23 -17 -3 -23 2 -23 16 0 10 3 22 7 26 13
13 38 1 38 -19z m1765 9 c0 -8 -4 -12 -10 -9 -5 3 -10 10 -10 16 0 5 5 9 10 9
6 0 10 -7 10 -16z m591 1 c0 -5 -7 -12 -16 -13 -23 -5 -47 6 -40 19 8 13 56 8
56 -6z m206 -17 c4 -27 2 -28 -42 -28 -53 0 -59 21 -9 31 l29 7 -33 1 c-21 1
-31 5 -27 12 4 5 23 9 43 7 30 -3 36 -7 39 -30z m399 21 c10 -17 -13 -36 -27
-22 -12 12 -4 33 11 33 5 0 12 -5 16 -11z m-2786 -18 c0 -10 -7 -21 -15 -25
-11 -4 -15 1 -15 19 0 16 6 25 15 25 8 0 15 -9 15 -19z m2975 -1 c0 -8 -8 -16
-17 -18 -13 -2 -18 3 -18 18 0 15 5 20 18 18 9 -2 17 -10 17 -18z m-2777 -18
c3 -18 -1 -22 -21 -22 -28 0 -41 22 -24 39 17 17 42 9 45 -17z m182 -7 c0 -17
-6 -22 -25 -22 -19 0 -25 5 -25 22 0 17 6 23 25 23 19 0 25 -6 25 -23z m167
-1 c2 -5 -3 -19 -12 -29 -14 -19 -14 -18 -15 13 0 31 18 42 27 16z m191 -19
c0 -17 -6 -25 -19 -25 -10 0 -21 5 -24 10 -11 17 3 40 23 40 14 0 20 -7 20
-25z m162 0 c0 -8 5 -15 10 -15 6 0 10 -4 10 -10 0 -14 -38 -12 -43 3 -5 16 3
37 14 37 5 0 9 -7 9 -15z m1757 3 c-2 -8 -17 -12 -38 -10 -55 6 -59 22 -5 22
34 0 46 -4 43 -12z m143 -12 c0 -9 -9 -14 -20 -13 -20 1 -25 9 -13 20 12 12
33 7 33 -7z m220 -6 c0 -13 -30 -20 -56 -14 -23 6 -30 15 -19 25 7 8 75 -2 75
-11z m-1940 -5 c0 -8 -4 -15 -10 -15 -5 0 -10 7 -10 15 0 8 5 15 10 15 6 0 10
-7 10 -15z m192 0 c0 -5 -5 -11 -11 -13 -6 -2 -11 4 -11 13 0 9 5 15 11 13 6
-2 11 -8 11 -13z m224 -5 c13 0 24 -4 24 -10 0 -12 -77 -13 -84 -1 -8 12 6 22
22 16 7 -3 25 -5 38 -5z m-2266 -50 c0 -15 -6 -18 -32 -15 -18 2 -45 4 -60 4
-17 1 -28 7 -28 15 0 11 15 14 60 15 52 0 60 -3 60 -19z m1850 6 c0 -8 -4 -18
-10 -21 -5 -3 -10 3 -10 14 0 12 5 21 10 21 6 0 10 -6 10 -14z m177 -8 c-3 -8
-6 -5 -6 6 -1 11 2 17 5 13 3 -3 4 -12 1 -19z m291 13 c13 -1 22 -7 22 -16 0
-13 -12 -15 -61 -13 -33 1 -63 6 -65 10 -10 16 7 25 43 22 21 -2 48 -3 61 -3z
m1632 -7 c0 -9 -7 -14 -17 -12 -25 5 -28 28 -4 28 12 0 21 -6 21 -16z m-3633
-25 c-4 -26 -13 -32 -30 -22 -10 6 -12 14 -6 30 10 27 40 20 36 -8z m3048 11
c9 -15 -3 -30 -20 -24 -7 3 -11 12 -8 20 6 16 19 18 28 4z m-2865 -24 c0 -31
-34 -29 -38 2 -3 17 2 22 17 22 16 0 21 -6 21 -24z m3045 4 c0 -7 -6 -15 -12
-17 -8 -3 -13 4 -13 17 0 13 5 20 13 18 6 -3 12 -11 12 -18z m-3630 -16 c0
-10 -8 -20 -17 -22 -18 -3 -26 27 -11 42 12 11 28 0 28 -20z m770 4 c-2 -27
-18 -34 -34 -14 -15 18 -6 36 18 36 12 0 17 -7 16 -22z m3050 2 c0 -22 -29
-18 -33 3 -3 14 1 18 15 15 10 -2 18 -10 18 -18z m-2855 2 c0 -5 -6 -16 -13
-27 -16 -21 -37 -12 -37 16 0 14 7 19 25 19 14 0 25 -4 25 -8z m170 -22 c0
-15 -7 -20 -25 -20 -24 0 -34 18 -18 33 15 15 43 7 43 -13z m190 -11 c0 -14
-7 -19 -25 -19 -18 0 -25 5 -25 18 0 25 7 31 31 25 10 -3 19 -14 19 -24z m188
-7 c3 -17 -2 -21 -27 -20 -22 1 -31 6 -31 18 0 22 6 27 32 25 15 -1 24 -9 26
-23z m1939 8 c-1 -11 -2 -20 -3 -20 -1 0 -10 3 -18 6 -13 5 -14 9 -5 20 16 20
28 17 26 -6z m-1767 -15 c0 -8 -6 -15 -14 -15 -17 0 -28 14 -19 24 12 12 33 6
33 -9z m2137 -8 c-6 -20 -27 -19 -27 2 0 14 5 19 15 14 9 -3 14 -10 12 -16z
m-1957 -2 c0 -8 -9 -15 -20 -15 -11 0 -20 7 -20 15 0 8 9 15 20 15 11 0 20 -7
20 -15z m174 6 c8 -12 -3 -41 -15 -41 -5 0 -9 11 -9 25 0 25 14 34 24 16z
m259 -10 c4 -1 7 -7 7 -15 0 -10 -14 -14 -57 -12 -46 1 -58 4 -61 18 -3 16 3
17 50 14 29 -2 56 -5 61 -5z m-623 -41 c0 -5 -7 -10 -15 -10 -8 0 -15 5 -15
10 0 6 7 10 15 10 8 0 15 -4 15 -10z m-1630 -18 c0 -7 -4 -10 -10 -7 -5 3 -10
2 -10 -3 0 -9 -21 -8 -58 4 -7 2 -10 8 -7 14 9 15 85 8 85 -8z m1810 14 c0
-11 -19 -15 -25 -6 -3 5 1 10 9 10 9 0 16 -2 16 -4z m180 -3 c0 -14 -19 -38
-25 -32 -8 8 5 39 16 39 5 0 9 -3 9 -7z m188 -15 c-2 -13 -10 -23 -18 -23 -8
0 -16 10 -18 23 -3 17 2 22 18 22 16 0 21 -5 18 -22z m780 4 c2 -6 -6 -10 -17
-9 -22 1 -26 8 -14 21 9 9 26 3 31 -12z m-2737 -13 c25 -13 16 -29 -17 -29
-23 0 -32 18 -17 33 8 9 11 9 34 -4z m257 -12 c3 -13 -4 -17 -32 -17 -33 0
-47 15 -30 33 13 13 59 1 62 -16z m2915 8 c8 -19 -13 -31 -23 -14 -9 14 -4 29
10 29 4 0 10 -7 13 -15z m183 -21 c-5 -13 -10 -14 -18 -6 -6 6 -8 18 -4 28 5
13 10 14 18 6 6 -6 8 -18 4 -28z m194 0 c0 -8 -9 -14 -19 -14 -14 0 -18 5 -14
19 6 22 33 17 33 -5z m-2050 -50 c0 -9 -12 -14 -35 -14 -32 0 -46 15 -30 32
10 10 65 -5 65 -18z m1713 11 c-4 -15 -56 -12 -61 3 -3 10 5 13 29 10 19 -2
33 -7 32 -13z m-1491 -5 c5 0 8 -10 6 -22 -3 -24 -43 -38 -58 -21 -14 14 8 56
26 49 9 -3 20 -6 26 -6z m1658 0 c0 -10 -26 -20 -34 -13 -11 12 -6 19 14 20
11 1 20 -2 20 -7z m218 -17 c2 -8 -6 -13 -21 -13 -32 0 -57 9 -57 22 0 14 73
5 78 -9z m-1643 -28 c0 -25 -4 -30 -27 -33 -26 -3 -28 -1 -28 33 0 34 2 36 27
33 24 -3 28 -8 28 -33z m241 15 c15 0 24 -6 24 -15 0 -17 -75 -22 -85 -5 -9
15 5 32 22 26 8 -3 26 -6 39 -6z m348 -49 c-2 -2 -11 -1 -20 3 -14 5 -14 9 -3
22 12 14 14 14 20 -3 3 -10 5 -20 3 -22z m183 14 c-5 -14 -29 -13 -34 2 -3 7
4 11 16 10 12 -1 20 -6 18 -12z m170 -18 c-6 -20 -27 -19 -27 2 0 14 5 19 15
14 9 -3 14 -10 12 -16z m888 14 c3 -5 1 -12 -4 -16 -14 -8 -91 6 -91 16 0 12
87 11 95 0z m-595 -86 c0 -16 -9 -19 -34 -9 -25 9 -19 24 9 24 16 0 25 -6 25
-15z m370 -10 c11 -13 8 -15 -19 -15 -21 0 -31 5 -31 15 0 8 8 15 19 15 10 0
24 -7 31 -15z m-3926 -13 c3 -5 -10 -33 -29 -63 -37 -58 -46 -113 -20 -123 8
-3 15 -10 15 -16 0 -18 -50 21 -66 51 -24 47 -18 96 15 130 28 28 74 39 85 21z
m146 -7 c0 -3 -13 -35 -30 -72 -37 -81 -37 -103 -4 -142 l26 -31 -25 0 c-59 0
-87 13 -117 53 -39 53 -38 89 3 149 32 48 32 48 90 48 31 0 57 -2 57 -5z m208
-27 c7 -38 -35 -94 -96 -126 -33 -18 -69 -32 -81 -32 -19 0 -20 -2 -9 -20 14
-23 40 -25 102 -9 39 10 45 16 72 72 16 34 35 62 42 63 7 2 8 0 3 -2 -5 -3
-17 -26 -26 -52 -24 -73 -42 -89 -112 -103 l-61 -13 -29 33 c-50 60 -54 77
-25 140 14 31 28 61 33 66 4 6 42 8 96 5 72 -4 88 -8 91 -22z m797 -27 c10
-17 -12 -21 -25 -6 -10 12 -10 15 3 15 9 0 18 -4 22 -9z m508 -17 c133 -5 177
-10 177 -20 0 -11 -77 -34 -114 -34 -23 0 -140 -41 -193 -68 l-52 -26 -43 40
c-24 22 -61 50 -83 64 -22 13 -51 32 -65 43 l-25 20 110 -7 c61 -3 190 -9 288
-12z m722 -54 c-28 -12 -45 -12 -45 0 0 6 15 10 33 9 27 0 29 -2 12 -9z m525
-20 c-23 -15 -111 -43 -116 -37 -3 3 1 14 8 26 10 17 23 21 68 21 39 0 51 -3
40 -10z"/>
<path d="M3288 4433 c6 -2 18 -2 25 0 6 3 1 5 -13 5 -14 0 -19 -2 -12 -5z"/>
<path d="M3493 4413 c9 -2 25 -2 35 0 9 3 1 5 -18 5 -19 0 -27 -2 -17 -5z"/>
<path d="M209 3211 c28 -25 73 -29 65 -6 -4 8 -17 15 -29 15 -13 0 -32 3 -42
6 -14 4 -13 1 6 -15z"/>
<path d="M590 3266 c0 -7 -11 -30 -25 -50 -36 -54 -33 -63 18 -57 45 7 48 14
34 81 -3 14 -6 28 -6 33 -2 13 -21 7 -21 -7z"/>
<path d="M1290 3214 c0 -44 62 -316 92 -404 28 -81 33 -91 38 -66 6 37 108
108 180 127 28 7 50 19 50 26 0 15 -5 16 -28 4 -9 -6 -39 -18 -66 -27 -27 -10
-71 -35 -97 -56 l-48 -38 5 53 c5 60 22 148 36 192 8 26 6 33 -17 50 -14 11
-43 35 -65 53 l-38 33 14 -58 c43 -171 65 -266 62 -275 -7 -21 -88 303 -88
350 0 10 3 13 8 7 4 -6 40 -37 80 -69 40 -32 104 -93 143 -134 77 -82 106 -92
40 -13 -68 82 -197 197 -273 246 -27 17 -28 17 -28 -1z"/>
<path d="M2960 3102 c-111 -84 -350 -306 -350 -324 0 -5 7 -8 15 -8 18 0 125
-53 169 -83 17 -12 57 -46 89 -76 31 -31 57 -51 57 -46 -1 55 54 503 66 543 8
29 -3 27 -46 -6z m0 -112 c-5 -47 -14 -150 -21 -230 -6 -80 -13 -147 -15 -149
-2 -3 -19 9 -37 26 -33 31 -135 101 -200 138 l-37 22 73 69 c82 78 240 214
244 211 1 -2 -2 -41 -7 -87z"/>
<path d="M2885 2995 c-178 -162 -205 -187 -205 -193 0 -4 19 -17 42 -30 41
-22 42 -22 62 -3 12 11 48 30 81 42 33 13 61 24 63 25 7 5 27 214 21 214 -2 0
-31 -25 -64 -55z m14 -94 c2 -1 -2 -8 -9 -16 -11 -13 -15 -13 -21 -3 -7 10 -9
10 -9 1 0 -7 -4 -13 -10 -13 -5 0 -10 6 -10 14 0 20 18 25 59 17z"/>
<path d="M4150 3121 c0 -13 29 -35 37 -28 7 8 -15 37 -28 37 -5 0 -9 -4 -9 -9z"/>
<path d="M4256 2725 c-3 -9 -6 -19 -6 -21 0 -6 62 -3 90 5 24 7 23 8 -10 13
-19 3 -42 8 -51 12 -11 5 -19 1 -23 -9z"/>
<path d="M4687 2495 c-168 -36 -359 -181 -458 -346 -45 -75 -48 -103 -16 -149
48 -73 128 -57 205 40 79 99 178 195 232 222 84 43 102 21 67 -81 -59 -169
-301 -403 -532 -515 -208 -101 -362 -148 -640 -193 -130 -21 -423 -24 -468 -5
-15 6 -41 33 -57 59 -33 52 -36 70 -14 65 20 -4 17 12 -6 33 -11 10 -20 26
-20 35 0 15 11 16 100 12 119 -6 122 -2 50 78 -27 30 -46 58 -44 62 3 4 23 13
45 19 22 7 38 16 37 21 -4 11 -8 11 -50 -6 -18 -7 -41 -16 -51 -19 -16 -6 -12
-14 30 -62 26 -30 51 -55 56 -55 4 0 7 -6 7 -12 0 -10 -26 -12 -105 -10 -62 2
-105 0 -105 -6 0 -5 9 -21 20 -35 11 -14 20 -28 20 -32 0 -7 -27 -2 -72 11
-10 3 -18 0 -18 -6 0 -6 13 -13 30 -16 23 -5 37 -19 64 -68 19 -33 75 -112
125 -174 75 -92 94 -123 106 -170 l15 -57 -5 58 c-5 55 -4 57 18 57 13 0 82 5
153 10 353 28 660 113 934 257 144 76 205 118 348 242 62 53 62 54 62 107 0
41 -4 54 -15 55 -8 1 -21 2 -27 3 -8 1 -12 12 -10 26 2 14 5 48 8 75 l5 50
-20 -25 c-27 -32 -27 -17 -1 20 42 59 60 113 60 186 0 66 -10 94 -33 94 -5 0
-6 -12 -2 -27 4 -16 3 -25 0 -21 -4 4 -29 -1 -56 -12 -58 -21 -57 -12 0 16 25
11 41 26 41 37 0 21 -29 22 -96 2 -27 -8 -54 -15 -61 -15 -15 0 -5 39 16 64
11 14 -4 9 -52 -16 -37 -20 -63 -31 -58 -24 21 25 188 105 244 116 37 7 57 16
57 26 0 8 -1 14 -2 13 -2 -1 -29 -7 -61 -14z m-329 -236 c-88 -102 -128 -164
-128 -204 0 -29 4 -36 26 -41 14 -4 30 -2 36 4 8 8 14 7 22 -4 10 -13 15 -13
41 7 l30 22 -32 -33 c-25 -27 -41 -34 -69 -34 -77 0 -88 83 -23 179 37 53 137
165 147 165 2 0 -20 -27 -50 -61z m127 -101 c-49 -51 -93 -97 -99 -103 -5 -5
-2 1 7 15 19 27 167 180 175 180 3 0 -34 -42 -83 -92z m135 -192 c0 -2 -8 -10
-17 -17 -16 -13 -17 -12 -4 4 13 16 21 21 21 13z m-189 -206 c5 0 9 -7 9 -16
0 -13 7 -15 35 -10 34 7 48 -5 24 -19 -6 -4 -8 -14 -5 -22 7 -17 -20 -72 -43
-90 -39 -31 -265 -145 -342 -173 -140 -51 -260 -87 -329 -99 -243 -39 -339
-52 -441 -57 l-115 -7 -67 81 c-37 44 -67 84 -67 88 0 5 42 6 92 3 205 -13
540 32 758 102 115 37 313 131 395 187 33 23 66 39 73 37 8 -3 18 -5 23 -5z
m179 -35 c0 -2 -10 -9 -22 -15 -22 -11 -22 -10 -4 4 21 17 26 19 26 11z"/>
<path d="M1498 2387 c10 -12 12 -44 7 -134 -8 -152 3 -246 28 -251 18 -4 18
-3 1 24 -16 23 -18 48 -18 156 1 71 5 133 11 139 6 6 24 -11 52 -51 43 -61 43
-62 46 -158 1 -53 6 -107 10 -120 6 -19 5 -21 -10 -15 -12 4 -16 3 -12 -5 4
-6 21 -13 37 -17 17 -4 30 -9 30 -11 0 -3 -16 -21 -36 -40 -34 -32 -36 -37
-32 -84 10 -100 95 -182 234 -225 94 -29 95 -29 166 -14 41 9 62 21 91 51 33
34 37 45 37 89 0 48 -16 90 -49 132 -13 16 -8 17 93 17 62 0 105 4 102 9 -4 5
1 37 10 71 8 34 14 80 12 103 -3 40 -2 42 42 65 25 13 60 33 77 44 l33 20 0
-59 c0 -32 -8 -97 -18 -145 -10 -49 -15 -88 -11 -88 12 0 39 126 45 217 5 62
12 92 23 100 31 24 2 13 -61 -24 -34 -20 -81 -46 -103 -58 -22 -12 -61 -35
-86 -51 -26 -16 -92 -57 -148 -91 l-102 -61 -36 15 c-20 8 -63 18 -96 21 l-61
7 -44 65 c-25 36 -57 84 -71 106 -50 79 -183 259 -194 263 -8 3 -8 -1 1 -12z
m158 -354 c6 -41 34 -45 34 -5 1 23 2 25 11 9 16 -28 7 -72 -15 -72 -24 0 -45
54 -44 115 1 29 2 34 5 15 2 -16 6 -45 9 -62z m114 -55 c0 -13 -8 -18 -26 -18
-20 0 -25 4 -20 16 3 9 6 28 6 42 l0 27 20 -25 c11 -14 20 -33 20 -42z m505
-33 c-6 -45 -29 -75 -45 -59 -13 13 -25 114 -13 114 5 0 9 -16 9 -35 0 -19 4
-38 8 -42 13 -13 36 28 37 66 1 20 3 28 6 17 3 -10 2 -38 -2 -61z m-85 38 c0
-16 3 -46 7 -67 l6 -39 -64 7 c-79 9 -109 16 -109 26 0 8 140 100 152 100 5 0
8 -12 8 -27z m-315 -43 c93 -15 174 -60 211 -117 43 -65 49 -112 20 -155 -29
-44 -79 -67 -145 -68 -164 -1 -326 101 -338 214 -5 42 -3 47 33 80 55 50 115
63 219 46z"/>
<path d="M1766 1784 c-10 -25 -7 -84 4 -84 6 0 10 23 10 50 0 52 -4 61 -14 34z"/>
<path d="M1910 1726 c0 -25 5 -48 10 -51 6 -4 10 13 10 44 0 28 -4 51 -10 51
-5 0 -10 -20 -10 -44z"/>
<path d="M1104 2162 c4 -12 -5 -29 -29 -52 -42 -41 -44 -50 -7 -49 20 0 22 2
10 7 -20 8 -16 16 34 59 35 30 37 33 19 43 -28 14 -33 13 -27 -8z"/>
<path d="M2013 2148 c-19 -24 -44 -117 -41 -150 3 -30 5 -28 12 17 4 28 16 71
26 98 19 48 20 56 3 35z"/>
<path d="M1803 2085 c0 -27 2 -38 4 -22 2 15 2 37 0 50 -2 12 -4 0 -4 -28z"/>
<path d="M1120 2055 c-13 -34 -13 -33 11 -37 18 -3 15 -11 -35 -83 -31 -44
-56 -84 -56 -89 0 -5 33 -6 80 -3 44 4 80 4 80 1 0 -2 -7 -21 -15 -41 -22 -52
-20 -65 10 -57 16 4 25 2 25 -5 0 -18 -78 -98 -120 -123 -132 -80 -180 -123
-180 -160 0 -29 18 -21 22 10 2 20 16 35 53 60 108 70 191 134 212 164 16 22
31 31 56 34 35 3 35 3 26 -29 -5 -18 -9 -47 -9 -65 l0 -33 40 33 c22 18 40 37
40 42 0 5 -10 0 -23 -12 -13 -12 -26 -22 -30 -22 -4 0 -4 25 -1 56 l7 57 -27
-7 c-25 -6 -27 -5 -21 15 6 18 4 20 -17 14 -12 -4 -31 -9 -40 -11 -22 -6 -22
3 -3 49 8 20 15 39 15 43 0 4 -37 4 -81 0 -90 -7 -92 -4 -48 53 11 14 36 46
54 71 l35 45 -25 3 c-27 4 -31 12 -14 29 8 8 8 13 0 17 -6 4 -15 -4 -21 -19z"/>
<path d="M2308 1873 c6 -2 18 -2 25 0 6 3 1 5 -13 5 -14 0 -19 -2 -12 -5z"/>
<path d="M2659 1569 c27 -22 27 -21 -16 -43 -18 -9 -33 -19 -33 -22 0 -3 9
-19 21 -35 l20 -29 -25 0 c-14 0 -26 -6 -26 -13 0 -9 12 -11 40 -9 l40 4 -20
25 c-30 39 -25 58 20 78 22 10 40 21 40 24 0 8 -59 41 -73 41 -7 -1 -1 -10 12
-21z"/>
<path d="M1530 1531 c0 -5 23 -28 51 -52 51 -42 51 -43 27 -50 -78 -21 -223
-87 -278 -127 -54 -40 -58 -45 -27 -38 37 9 34 -6 -7 -38 -27 -21 -41 -25 -68
-19 -49 9 -70 22 -64 40 6 14 -2 15 -59 9 l-65 -7 -41 39 c-29 26 -45 53 -55
87 l-14 50 6 -50 c3 -27 10 -58 15 -67 17 -32 82 -68 122 -68 50 0 93 -23 112
-60 15 -29 14 -31 -21 -70 -20 -22 -50 -49 -68 -60 -38 -23 -139 -46 -249 -56
-86 -8 -86 -8 -151 -82 -48 -55 -59 -99 -36 -143 14 -25 62 -49 100 -49 34 0
90 46 90 74 0 8 8 22 17 31 16 16 15 17 -2 14 -10 -2 -31 -24 -45 -49 -24 -41
-30 -45 -63 -44 -87 3 -113 66 -58 140 56 77 77 94 118 94 39 0 162 15 242 30
29 5 40 5 33 -2 -19 -19 0 -38 54 -54 64 -18 144 -61 144 -77 0 -6 10 -2 23 9
12 11 31 26 42 34 17 13 16 11 -4 -17 -12 -18 -25 -33 -29 -33 -10 0 -142
-126 -143 -137 -1 -4 -2 -30 -3 -57 -1 -41 -6 -52 -31 -72 -34 -27 -57 -24
-94 11 -18 18 -24 36 -28 85 l-4 62 66 63 c49 47 65 69 65 90 0 36 -20 28 -34
-15 l-11 -35 -100 -3 c-114 -3 -157 -21 -54 -23 35 -1 75 -4 89 -8 24 -7 24
-7 4 -21 -11 -8 -28 -27 -37 -41 -16 -24 -16 -31 -1 -98 14 -61 21 -74 45 -86
36 -19 62 -19 99 0 39 20 50 43 50 104 0 56 -6 48 113 154 58 52 91 91 134
164 61 103 94 134 122 116 38 -24 101 13 101 59 0 40 -25 69 -83 98 -33 17
-66 30 -74 30 -8 0 -35 -11 -61 -25 -26 -14 -62 -25 -79 -25 -66 0 -33 33 97
94 102 48 180 72 205 62 8 -3 26 -31 40 -63 20 -44 28 -54 35 -43 5 8 10 23
10 33 0 27 14 14 72 -68 28 -41 55 -75 60 -75 4 0 8 16 8 35 0 38 13 44 44 20
19 -14 36 -12 36 6 0 5 -8 9 -18 9 -10 0 -27 7 -38 15 -28 21 -32 19 -36 -21
l-3 -35 -54 75 c-30 42 -57 76 -62 76 -4 0 -11 -12 -16 -26 -8 -25 -9 -25 -32
24 -18 39 -34 55 -67 72 -23 13 -59 38 -80 56 -39 36 -44 39 -44 25z m71 -275
c32 -22 34 -27 31 -66 -5 -47 -19 -57 -59 -42 -28 11 -28 11 7 9 34 -2 35 -1
35 38 0 33 -4 42 -27 53 -14 7 -44 13 -66 15 -50 3 -44 17 6 17 23 0 51 -9 73
-24z m-174 -22 c-3 -3 -12 -4 -19 -1 -8 3 -5 6 6 6 11 1 17 -2 13 -5z m-180
-116 c-3 -8 -6 -5 -6 6 -1 11 2 17 5 13 3 -3 4 -12 1 -19z m-37 -14 c0 -8 -5
-12 -10 -9 -6 4 -8 11 -5 16 9 14 15 11 15 -7z m229 -64 c-12 -22 -25 -38 -27
-35 -5 4 37 75 44 75 3 0 -5 -18 -17 -40z"/>
<path d="M2390 1349 c0 -18 -3 -20 -12 -11 -20 20 -28 14 -27 -20 1 -19 3 -25
6 -15 5 18 6 18 24 1 18 -16 19 -16 19 1 0 14 5 16 28 10 15 -4 34 -8 42 -10
50 -12 88 -28 119 -50 52 -36 220 -210 253 -261 15 -25 36 -47 45 -51 54 -18
118 -94 138 -160 5 -19 0 -25 -33 -39 -33 -12 -44 -25 -61 -64 -26 -61 -26
-86 0 -129 28 -46 18 -78 -42 -140 -58 -60 -82 -109 -73 -148 26 -102 119
-233 166 -233 28 0 108 58 108 78 0 10 -9 35 -21 56 -24 45 -27 112 -7 152 18
38 88 57 187 50 71 -4 76 -6 118 -48 56 -54 73 -86 73 -137 0 -35 4 -43 30
-56 49 -25 88 -19 126 19 42 42 44 77 9 193 -24 79 -28 84 -68 104 -71 36
-136 90 -211 179 -94 110 -111 162 -111 337 0 136 -11 141 -21 9 -5 -63 -11
-86 -21 -86 -7 0 -16 -13 -19 -29 -5 -23 -11 -29 -29 -27 -13 1 -31 8 -39 15
-13 11 -18 10 -32 -3 -14 -15 -19 -12 -55 37 -22 30 -61 65 -88 82 -28 16 -58
44 -70 64 -65 113 -327 329 -422 348 -25 5 -29 2 -29 -18z m60 -15 c14 -8 17
-13 7 -10 -10 3 -25 6 -33 6 -8 0 -14 5 -14 10 0 14 10 12 40 -6z m580 -615
c0 -4 -10 -9 -22 -11 -34 -5 -60 -62 -54 -118 4 -31 3 -40 -4 -30 -5 8 -10 39
-10 68 0 42 5 58 23 75 20 21 67 32 67 16z m467 -277 c65 -34 71 -43 97 -150
21 -84 20 -104 -6 -137 -18 -23 -26 -26 -56 -21 -41 6 -72 32 -72 59 0 56 -53
124 -156 200 -23 17 -31 27 -21 27 12 0 17 9 17 33 0 20 9 42 25 59 l25 27
-40 46 c-63 73 -47 63 43 -27 50 -50 108 -96 144 -116z m-498 103 c-9 -32 -7
-36 35 -76 25 -24 43 -46 40 -50 -2 -4 6 -5 18 -2 l23 6 -22 -24 c-56 -62 -77
-157 -48 -226 20 -46 19 -89 -1 -97 -25 -10 -73 -7 -96 5 -42 23 -73 72 -90
143 -26 106 -25 108 45 184 40 44 68 85 77 113 15 49 19 59 25 59 2 0 -1 -16
-6 -35z m267 -148 c4 -4 -19 -7 -52 -7 -32 0 -69 -3 -81 -6 -13 -4 -23 -2 -23
4 0 17 141 25 156 9z"/>
<path d="M1971 1308 c0 -24 2 -28 7 -15 7 15 12 13 42 -19 61 -63 128 -115
135 -104 3 5 -4 14 -17 19 -13 5 -51 41 -86 80 -35 39 -68 71 -73 71 -5 0 -9
-15 -8 -32z"/>
<path d="M2150 1295 c0 -8 5 -15 11 -15 6 0 34 -20 62 -45 49 -42 72 -50 60
-20 -3 8 -10 15 -17 15 -6 0 -32 18 -56 40 -49 43 -60 48 -60 25z"/>
<path d="M2267 1292 c-3 -4 -1 -16 4 -27 4 -11 8 -14 8 -7 1 8 13 4 34 -12 19
-14 37 -23 40 -19 13 12 7 23 -13 23 -11 0 -20 4 -20 9 0 12 -48 42 -53 33z"/>
<path d="M2142 1220 c0 -14 2 -19 5 -12 2 6 2 18 0 25 -3 6 -5 1 -5 -13z"/>
<path d="M3140 1120 c0 -25 -6 -63 -14 -85 -18 -54 -27 -105 -18 -105 10 0 52
143 52 177 0 15 -5 35 -10 43 -7 11 -10 3 -10 -30z"/>
<path d="M3222 1110 c0 -14 2 -19 5 -12 2 6 2 18 0 25 -3 6 -5 1 -5 -13z"/>
<path d="M2920 1067 c0 -20 48 -78 74 -87 35 -12 36 -12 36 -1 0 5 -16 15 -35
21 -19 6 -35 15 -35 18 -1 10 -40 58 -40 49z"/>
</g>
</svg>
